<?xml version="1.0" encoding="UTF-8" standalone="no"?>
<svg
   xmlns:dc="http://purl.org/dc/elements/1.1/"
   xmlns:cc="http://creativecommons.org/ns#"
   xmlns:rdf="http://www.w3.org/1999/02/22-rdf-syntax-ns#"
   xmlns:svg="http://www.w3.org/2000/svg"
   xmlns="http://www.w3.org/2000/svg"
   viewBox="0 0 582.66669 158.66667"
   height="158.66667"
   width="582.66669"
   xml:space="preserve"
   id="svg2"
   version="1.1"><metadata
     id="metadata8"><rdf:RDF><cc:Work
         rdf:about=""><dc:format>image/svg+xml</dc:format><dc:type
           rdf:resource="http://purl.org/dc/dcmitype/StillImage" /></cc:Work></rdf:RDF></metadata><defs
     id="defs6" /><g
     transform="matrix(1.3333333,0,0,-1.3333333,0,158.66667)"
     id="g10"><g
       transform="scale(0.1)"
       id="g12"><path
         id="path14"
         style="fill:#000000;fill-opacity:1;fill-rule:evenodd;stroke:none"
         d="M 310,653.52 439.57,810.941 349.102,949.609 142.422,951.211 0,812.031 75.5117,653.012 310,653.52" /><path
         id="path16"
         style="fill:#ff421c;fill-opacity:1;fill-rule:evenodd;stroke:none"
         d="M 686.371,798.09 H 471.129 L 343.75,639.609 446.02,461.328 H 694.41 L 803.629,641.25 686.371,798.09 M 789.691,1190 H 969.02 l 108.71,-106.02 -71.21,-117.261 -195.43,1.64 -102.77,119.921 81.371,101.72" /><path
         id="path18"
         style="fill:#000000;fill-opacity:1;fill-rule:evenodd;stroke:none"
         d="M 813.281,946.41 718.52,810.43 836.84,655.16 l 222.73,1.051 77.07,153.129 -126.37,135.43 -196.989,1.64" /><path
         id="path20"
         style="fill:#ff421c;fill-opacity:1;fill-rule:evenodd;stroke:none"
         d="m 1107.19,1073.79 -69.61,-118.321 127.42,-134.34 202.89,-0.539 53.05,132.219 -132.27,118.871 -181.48,2.11" /><path
         id="path22"
         style="fill:#ff4400;fill-opacity:1;fill-rule:nonzero;stroke:none"
         d="m 2029.3,945.391 c -23.05,19.57 -47.35,34.257 -72.97,44.058 -25.55,9.77 -52.42,14.691 -80.63,14.691 -54.61,0 -99.02,-17.581 -133.28,-52.66 -34.18,-35 -51.25,-80.39 -51.25,-136.089 0,-53.871 16.6,-98.36 49.85,-133.442 33.32,-35 75.35,-52.5 126.09,-52.5 29.57,0 57.69,5.199 84.37,15.629 26.76,10.512 52.43,26.332 77.04,47.5 v -91.719 c -21.8,-15.738 -45.55,-27.461 -71.25,-35.16 -25.75,-7.687 -53.6,-11.558 -83.6,-11.558 -38.24,0 -73.55,6.25 -105.94,18.75 -32.42,12.5 -60.89,30.937 -85.46,55.308 -24.38,23.832 -43.13,51.961 -56.25,84.379 -13.05,32.383 -19.54,66.91 -19.54,103.594 0,36.558 6.49,70.937 19.54,103.129 13.12,32.179 32.07,60.469 56.87,84.839 24.77,24.57 53.2,43.16 85.31,55.78 32.07,12.58 66.76,18.91 104.07,18.91 29.37,0 57.34,-4.3 83.9,-12.81 26.64,-8.56 52.5,-21.49 77.5,-38.75 z m 528.82,-129.219 c 0,25.199 -4.64,49.137 -13.9,71.879 -9.18,22.808 -22.42,43.039 -39.69,60.777 -16.87,17.5 -36.41,30.973 -58.59,40.473 -22.11,9.449 -45.43,14.219 -70,14.219 -24.61,0 -47.97,-4.692 -70.16,-14.071 -22.19,-9.289 -41.95,-22.808 -59.22,-40.621 -17.3,-17.5 -30.47,-37.656 -39.53,-60.469 -9.06,-22.738 -13.59,-46.8 -13.59,-72.187 0,-25.313 4.53,-49.223 13.59,-71.723 9.06,-22.5 22.23,-42.609 39.53,-60.308 17.27,-17.813 36.96,-31.411 59.06,-40.782 22.08,-9.3 45.51,-13.91 70.32,-13.91 24.26,0 47.38,4.61 69.37,13.91 21.96,9.371 41.72,22.969 59.22,40.782 17.27,17.699 30.51,37.847 39.69,60.468 9.26,22.692 13.9,46.563 13.9,71.563 z m 84.54,0 c 0,-35.551 -6.68,-69.141 -20,-100.781 -13.25,-31.563 -32.62,-59.77 -58.13,-84.532 -25.62,-24.808 -54.65,-43.828 -87.03,-57.031 -32.3,-13.129 -66.17,-19.687 -101.56,-19.687 -35.94,0 -70.28,6.64 -102.97,19.839 -32.62,13.321 -61.41,32.27 -86.41,56.879 -25.54,24.762 -44.92,52.852 -58.12,84.219 -13.13,31.442 -19.69,65.152 -19.69,101.094 0,35.707 6.56,69.379 19.69,100.937 13.2,31.641 32.58,60 58.12,85.001 25.51,24.77 54.42,43.63 86.72,56.56 32.27,13.01 66.49,19.53 102.66,19.53 35.94,0 70,-6.52 102.18,-19.53 32.19,-12.93 60.98,-31.79 86.41,-56.56 25.51,-25.231 44.88,-53.712 58.13,-85.469 13.32,-31.801 20,-65.27 20,-100.469 z" /><path
         id="path24"
         style="fill:#ff4400;fill-opacity:1;fill-rule:nonzero;stroke:none"
         d="m 2707.85,667.422 64.85,30 c 6.13,-22.301 17.38,-39.332 33.75,-51.094 16.44,-11.68 37.38,-17.5 62.81,-17.5 24.14,0 43.32,6.723 57.5,20.152 14.26,13.442 21.4,31.411 21.4,53.911 0,29.379 -24.37,55.507 -73.12,78.437 -6.8,3.442 -11.99,5.942 -15.63,7.5 -55,26.871 -91.68,51.133 -110,72.813 -18.36,21.757 -27.5,48.32 -27.5,79.687 0,40.703 13.79,73.672 41.41,98.902 27.7,25.32 63.95,37.97 108.75,37.97 36.76,0 67.54,-7.15 92.34,-21.4 24.77,-14.18 41.96,-34.61 51.57,-61.249 l -63.44,-32.66 c -10,15.629 -21.02,27.07 -32.97,34.379 -11.87,7.26 -25.59,10.93 -41.09,10.93 -21.8,0 -39.14,-5.7 -52.03,-17.028 -12.82,-11.371 -19.22,-26.641 -19.22,-45.781 0,-30 28.16,-57.969 84.53,-83.911 4.37,-1.992 7.81,-3.55 10.31,-4.679 49.38,-22.821 83.2,-45.121 101.56,-66.879 18.44,-21.684 27.66,-48.75 27.66,-81.25 0,-47.301 -14.92,-84.922 -44.69,-112.813 -29.8,-27.808 -70.08,-41.718 -120.78,-41.718 -42.5,0 -77.34,9.769 -104.53,29.218 -27.19,19.571 -45,47.582 -53.44,84.063 z" /><path
         id="path26"
         style="fill:#ff4400;fill-opacity:1;fill-rule:nonzero;stroke:none"
         d="m 3527.5,814.141 c -0.94,3.828 -2.42,14.531 -4.38,32.031 -1.87,14.566 -3.51,26.598 -4.84,36.098 -2.11,-11.372 -5,-22.739 -8.75,-34.071 -3.75,-11.359 -8.44,-22.969 -14.06,-34.84 L 3364.69,547.27 3234.06,818.828 c -5.43,11.133 -10.15,21.91 -14.22,32.344 -3.98,10.508 -7.42,20.859 -10.31,31.098 -0.23,-10.43 -1.09,-21.411 -2.65,-32.969 -1.49,-11.492 -3.68,-23.442 -6.57,-35.942 l -53.59,-245.937 h -74.69 L 3190,1088.05 3337.5,772.891 c 2.27,-5.121 5.7,-13.442 10.31,-25 4.69,-11.563 10.31,-25.903 16.88,-42.969 4.76,14.379 12.34,32.539 22.65,54.527 2.7,5.942 4.73,10.512 6.1,13.75 l 143.9,314.851 120.78,-520.628 h -75.31 z" /><path
         id="path28"
         style="fill:#ff4400;fill-opacity:1;fill-rule:nonzero;stroke:none"
         d="m 3724.8,567.422 h 81.0898 v 499.527 H 3724.8 Z" /><path
         id="path30"
         style="fill:#ff4400;fill-opacity:1;fill-rule:nonzero;stroke:none"
         d="m 4323.59,945.391 c -23.04,19.57 -47.34,34.257 -72.97,44.058 -25.54,9.77 -52.42,14.691 -80.62,14.691 -54.61,0 -99.02,-17.581 -133.28,-52.66 -34.18,-35 -51.25,-80.39 -51.25,-136.089 0,-53.871 16.6,-98.36 49.84,-133.442 33.32,-35 75.35,-52.5 126.1,-52.5 29.57,0 57.69,5.199 84.37,15.629 26.76,10.512 52.42,26.332 77.03,47.5 v -91.719 c -21.79,-15.738 -45.54,-27.461 -71.25,-35.16 -25.74,-7.687 -53.59,-11.558 -83.59,-11.558 -38.24,0 -73.56,6.25 -105.94,18.75 -32.42,12.5 -60.9,30.937 -85.47,55.308 -24.37,23.832 -43.12,51.961 -56.25,84.379 -13.04,32.383 -19.53,66.91 -19.53,103.594 0,36.558 6.49,70.937 19.53,103.129 13.13,32.179 32.07,60.469 56.88,84.839 24.76,24.57 53.2,43.16 85.31,55.78 32.07,12.58 66.76,18.91 104.06,18.91 29.38,0 57.35,-4.3 83.91,-12.81 26.64,-8.56 52.5,-21.49 77.5,-38.75 z" /><path
         id="path32"
         style="fill:#000000;fill-opacity:1;fill-rule:nonzero;stroke:none"
         d="M 20.9805,18.2813 V 254.219 H 152.699 v -32.66 H 59.4102 V 162.5 H 152.699 V 128.75 H 59.4102 V 52.6602 H 152.699 V 18.2813 Z m 175.9295,0 V 263.59 L 346.762,119.379 c 4.136,-4.18 8.316,-8.559 12.5,-13.129 4.136,-4.609 8.508,-9.8008 13.117,-15.6289 V 254.219 h 35.473 V 9.05859 L 255.039,155.941 c -4.18,3.938 -8.199,8.118 -12.027,12.5 -3.75,4.368 -7.352,8.981 -10.782,13.899 V 18.2813 Z" /><path
         id="path34"
         style="fill:#000000;fill-opacity:1;fill-rule:nonzero;stroke:none"
         d="M 538.09,221.559 V 18.2813 H 499.801 V 221.559 h -62.813 v 32.66 H 600.43 v -32.66 z" /><path
         id="path36"
         style="fill:#000000;fill-opacity:1;fill-rule:nonzero;stroke:none"
         d="M 630.039,18.2813 V 254.219 h 131.723 v -32.66 H 668.48 V 162.5 h 93.282 V 128.75 H 668.48 V 52.6602 h 93.282 V 18.2813 Z" /><path
         id="path38"
         style="fill:#000000;fill-opacity:1;fill-rule:nonzero;stroke:none"
         d="m 844.449,153.59 h 6.879 c 20.313,0 33.793,2.351 40.473,7.031 6.64,4.77 10,13.207 10,25.32 0,12.887 -3.602,22.028 -10.781,27.34 -7.11,5.309 -20.321,7.969 -39.692,7.969 h -6.879 z m -2.5,-29.84 V 18.2813 H 806.02 V 254.219 h 53.589 c 15.621,0 27.731,-1.059 36.411,-3.129 8.628,-1.988 16.011,-5.391 22.179,-10.149 7.27,-5.632 12.891,-12.972 16.879,-22.031 3.942,-9.07 5.942,-18.988 5.942,-29.691 0,-18.867 -4.61,-33.668 -13.75,-44.379 -9.071,-10.738 -22.5,-17.141 -40.321,-19.219 L 968.199,18.2813 H 924.77 L 846.328,123.75 Z" /><path
         id="path40"
         style="fill:#000000;fill-opacity:1;fill-rule:nonzero;stroke:none"
         d="m 1029.41,155.621 h 9.85 c 21.25,0 35.39,2.27 42.5,6.879 7.07,4.57 10.62,12.73 10.62,24.531 0,12.5 -3.83,21.289 -11.4,26.41 -7.5,5.188 -21.41,7.809 -41.72,7.809 h -9.85 z m -2.5,-31.402 V 18.2813 H 990.98 V 254.219 h 58.12 c 17.19,0 29.77,-0.938 37.81,-2.809 8.13,-1.879 15.2,-5 21.25,-9.379 7.39,-5.429 13.17,-12.812 17.35,-22.191 4.26,-9.289 6.4,-19.488 6.4,-30.621 0,-11.168 -2.14,-21.489 -6.4,-30.938 -4.18,-9.492 -9.96,-16.871 -17.35,-22.191 -6.05,-4.289 -13.12,-7.34 -21.25,-9.211 -8.04,-1.797 -20.62,-2.66 -37.81,-2.66 z" /><path
         id="path42"
         style="fill:#000000;fill-opacity:1;fill-rule:nonzero;stroke:none"
         d="m 1205.39,153.59 h 6.88 c 20.31,0 33.78,2.351 40.46,7.031 6.65,4.77 10,13.207 10,25.32 0,12.887 -3.59,22.028 -10.78,27.34 -7.11,5.309 -20.31,7.969 -39.68,7.969 h -6.88 z m -2.5,-29.84 V 18.2813 h -35.94 V 254.219 h 53.6 c 15.62,0 27.73,-1.059 36.4,-3.129 8.64,-1.988 16.02,-5.391 22.19,-10.149 7.27,-5.632 12.89,-12.972 16.88,-22.031 3.94,-9.07 5.93,-18.988 5.93,-29.691 0,-18.867 -4.61,-33.668 -13.75,-44.379 -9.06,-10.738 -22.5,-17.141 -40.31,-19.219 L 1329.14,18.2813 H 1285.7 L 1207.27,123.75 Z" /><path
         id="path44"
         style="fill:#000000;fill-opacity:1;fill-rule:nonzero;stroke:none"
         d="m 1352.54,18.2813 h 38.4414 v 235.938 H 1352.54 Z" /><path
         id="path46"
         style="fill:#000000;fill-opacity:1;fill-rule:nonzero;stroke:none"
         d="m 1432.58,65.4688 30.62,14.2226 c 2.82,-10.5508 8.05,-18.5625 15.78,-24.0703 7.82,-5.5391 17.7,-8.2813 29.69,-8.2813 11.45,0 20.51,3.129 27.19,9.379 6.76,6.332 10.16,14.8398 10.16,25.4726 0,13.8281 -11.53,26.2496 -34.54,37.1876 -3.24,1.562 -5.7,2.691 -7.34,3.43 -26.05,12.703 -43.4,24.14 -52.03,34.382 -8.67,10.309 -12.97,22.848 -12.97,37.649 0,19.262 6.48,34.851 19.53,46.719 13.13,11.961 30.24,17.972 51.41,17.972 17.38,0 31.91,-3.402 43.59,-10.152 11.76,-6.68 19.88,-16.328 24.38,-28.91 l -30,-15.469 c -4.69,7.379 -9.93,12.809 -15.63,16.25 -5.62,3.441 -12.11,5.16 -19.37,5.16 -10.32,0 -18.52,-2.738 -24.53,-8.129 -6.06,-5.312 -9.07,-12.461 -9.07,-21.402 0,-14.18 13.28,-27.43 39.85,-39.688 2.07,-0.941 3.67,-1.679 4.84,-2.191 23.32,-10.859 39.3,-21.41 47.97,-31.719 8.75,-10.23 13.12,-22.972 13.12,-38.281 0,-22.418 -7.03,-40.1602 -21.09,-53.2812 -14.06,-13.129 -33.09,-19.6875 -57.03,-19.6875 -20.12,0 -36.56,4.6093 -49.38,13.75 -12.81,9.2578 -21.21,22.5 -25.15,39.6875 z" /><path
         id="path48"
         style="fill:#000000;fill-opacity:1;fill-rule:nonzero;stroke:none"
         d="M 1627.15,18.2813 V 254.219 h 131.72 v -32.66 h -93.28 V 162.5 h 93.28 v -33.75 h -93.28 V 52.6602 h 93.28 V 18.2813 Z" /><path
         id="path50"
         style="fill:#000000;fill-opacity:1;fill-rule:nonzero;stroke:none"
         d="m 1889.57,65.4688 30.63,14.2226 c 2.81,-10.5508 8.04,-18.5625 15.78,-24.0703 7.81,-5.5391 17.69,-8.2813 29.68,-8.2813 11.45,0 20.51,3.129 27.19,9.379 6.76,6.332 10.16,14.8398 10.16,25.4726 0,13.8281 -11.53,26.2496 -34.53,37.1876 -3.25,1.562 -5.71,2.691 -7.35,3.43 -26.05,12.703 -43.4,24.14 -52.03,34.382 -8.67,10.309 -12.97,22.848 -12.97,37.649 0,19.262 6.49,34.851 19.53,46.719 13.13,11.961 30.24,17.972 51.41,17.972 17.38,0 31.91,-3.402 43.59,-10.152 11.76,-6.68 19.89,-16.328 24.38,-28.91 l -30,-15.469 c -4.69,7.379 -9.92,12.809 -15.63,16.25 -5.62,3.441 -12.11,5.16 -19.37,5.16 -10.31,0 -18.52,-2.738 -24.53,-8.129 -6.06,-5.312 -9.06,-12.461 -9.06,-21.402 0,-14.18 13.28,-27.43 39.84,-39.688 2.07,-0.941 3.67,-1.679 4.84,-2.191 23.32,-10.859 39.3,-21.41 47.97,-31.719 8.75,-10.23 13.13,-22.972 13.13,-38.281 0,-22.418 -7.03,-40.1602 -21.1,-53.2812 -14.06,-13.129 -33.08,-19.6875 -57.03,-19.6875 -20.12,0 -36.56,4.6093 -49.37,13.75 -12.82,9.2578 -21.21,22.5 -25.16,39.6875 z" /><path
         id="path52"
         style="fill:#000000;fill-opacity:1;fill-rule:nonzero;stroke:none"
         d="m 2285.98,135.781 c 0,11.879 -2.19,23.168 -6.57,33.91 -4.29,10.821 -10.46,20.387 -18.59,28.75 -8.05,8.2 -17.3,14.571 -27.81,19.059 -10.43,4.449 -21.41,6.719 -32.97,6.719 -11.68,0 -22.77,-2.27 -33.28,-6.719 -10.43,-4.379 -19.69,-10.738 -27.81,-19.059 -8.13,-8.242 -14.38,-17.781 -18.75,-28.601 -4.3,-10.738 -6.41,-22.11 -6.41,-34.059 0,-11.992 2.11,-23.281 6.41,-33.902 4.37,-10.629 10.62,-20.1173 18.75,-28.4376 8.12,-8.4414 17.38,-14.8516 27.81,-19.2226 10.39,-4.379 21.48,-6.5586 33.28,-6.5586 11.44,0 22.34,2.1796 32.66,6.5586 10.39,4.371 19.76,10.7812 28.12,19.2226 8.13,8.3203 14.3,17.8086 18.59,28.4376 4.38,10.703 6.57,22.031 6.57,33.902 z m 40,0 c 0,-16.801 -3.13,-32.66 -9.38,-47.6599 -6.25,-14.9219 -15.43,-28.1992 -27.5,-39.8398 C 2276.91,36.4805 2263.2,27.5 2248.01,21.25 c -15.24,-6.1289 -31.21,-9.2187 -47.97,-9.2187 -16.99,0 -33.2,3.1289 -48.59,9.3789 -15.43,6.25 -29.07,15.1914 -40.94,26.8711 -11.99,11.6406 -21.1,24.8789 -27.35,39.6875 -6.25,14.8832 -9.37,30.8202 -9.37,47.8122 0,16.879 3.12,32.739 9.37,47.66 6.25,14.879 15.36,28.278 27.35,40.149 12.07,11.64 25.7,20.551 40.94,26.719 15.31,6.14 31.48,9.222 48.59,9.222 16.95,0 33.05,-3.082 48.28,-9.222 15.2,-6.168 28.79,-15.079 40.78,-26.719 12.07,-11.988 21.25,-25.469 27.5,-40.469 6.25,-14.922 9.38,-30.699 9.38,-47.34 z" /><path
         id="path54"
         style="fill:#000000;fill-opacity:1;fill-rule:nonzero;stroke:none"
         d="M 2370.27,18.2813 V 254.219 h 38.44 V 52.6602 h 85.63 V 18.2813 Z" /><path
         id="path56"
         style="fill:#000000;fill-opacity:1;fill-rule:nonzero;stroke:none"
         d="m 2519.18,254.219 h 37.81 V 110.941 c 0,-21.2496 4.89,-37.2691 14.69,-47.9722 9.88,-10.629 24.61,-15.9375 44.22,-15.9375 19.37,0 33.94,5.3085 43.75,15.9375 9.88,10.7031 14.84,26.7226 14.84,47.9722 v 143.278 h 38.44 V 107.34 c 0,-31.8712 -8.09,-55.7384 -24.22,-71.5587 -16.17,-15.8594 -40.43,-23.75 -72.81,-23.75 -32.5,0 -56.8,7.8476 -72.81,23.5898 -15.94,15.8281 -23.91,39.7305 -23.91,71.7189 z" /><path
         id="path58"
         style="fill:#000000;fill-opacity:1;fill-rule:nonzero;stroke:none"
         d="M 2842.27,221.559 V 18.2813 h -38.29 V 221.559 h -62.81 v 32.66 h 163.44 v -32.66 z" /><path
         id="path60"
         style="fill:#000000;fill-opacity:1;fill-rule:nonzero;stroke:none"
         d="m 2934.88,18.2813 h 38.4414 v 235.938 H 2934.88 Z" /><path
         id="path62"
         style="fill:#000000;fill-opacity:1;fill-rule:nonzero;stroke:none"
         d="m 3230.23,135.781 c 0,11.879 -2.18,23.168 -6.56,33.91 -4.29,10.821 -10.47,20.387 -18.59,28.75 -8.05,8.2 -17.31,14.571 -27.81,19.059 -10.43,4.449 -21.41,6.719 -32.97,6.719 -11.68,0 -22.78,-2.27 -33.28,-6.719 -10.43,-4.379 -19.69,-10.738 -27.82,-19.059 -8.12,-8.242 -14.37,-17.781 -18.75,-28.601 -4.29,-10.738 -6.4,-22.11 -6.4,-34.059 0,-11.992 2.11,-23.281 6.4,-33.902 4.38,-10.629 10.63,-20.1173 18.75,-28.4376 8.13,-8.4414 17.39,-14.8516 27.82,-19.2226 10.39,-4.379 21.48,-6.5586 33.28,-6.5586 11.44,0 22.34,2.1796 32.65,6.5586 10.39,4.371 19.77,10.7812 28.13,19.2226 8.12,8.3203 14.3,17.8086 18.59,28.4376 4.38,10.703 6.56,22.031 6.56,33.902 z m 40,0 c 0,-16.801 -3.12,-32.66 -9.37,-47.6599 -6.25,-14.9219 -15.43,-28.1992 -27.5,-39.8398 -12.19,-11.8008 -25.9,-20.7813 -41.09,-27.0313 -15.24,-6.1289 -31.22,-9.2187 -47.97,-9.2187 -17,0 -33.21,3.1289 -48.6,9.3789 -15.43,6.25 -29.06,15.1914 -40.93,26.8711 -12,11.6406 -21.1,24.8789 -27.35,39.6875 -6.25,14.8832 -9.37,30.8202 -9.37,47.8122 0,16.879 3.12,32.739 9.37,47.66 6.25,14.879 15.35,28.278 27.35,40.149 12.07,11.64 25.7,20.551 40.93,26.719 15.32,6.14 31.49,9.222 48.6,9.222 16.95,0 33.04,-3.082 48.28,-9.222 15.19,-6.168 28.79,-15.079 40.78,-26.719 12.07,-11.988 21.25,-25.469 27.5,-40.469 6.25,-14.922 9.37,-30.699 9.37,-47.34 z" /><path
         id="path64"
         style="fill:#000000;fill-opacity:1;fill-rule:nonzero;stroke:none"
         d="M 3314.53,18.2813 V 263.59 l 149.85,-144.211 c 4.14,-4.18 8.32,-8.559 12.5,-13.129 4.14,-4.609 8.51,-9.8008 13.12,-15.6289 V 254.219 h 35.47 V 9.05859 L 3372.66,155.941 c -4.18,3.938 -8.21,8.118 -12.04,12.5 -3.74,4.368 -7.34,8.981 -10.78,13.899 V 18.2813 Z" /><path
         id="path66"
         style="fill:#000000;fill-opacity:1;fill-rule:nonzero;stroke:none"
         d="m 3565.98,65.4688 30.62,14.2226 c 2.81,-10.5508 8.05,-18.5625 15.78,-24.0703 7.82,-5.5391 17.7,-8.2813 29.69,-8.2813 11.45,0 20.51,3.129 27.19,9.379 6.76,6.332 10.15,14.8398 10.15,25.4726 0,13.8281 -11.52,26.2496 -34.53,37.1876 -3.24,1.562 -5.7,2.691 -7.34,3.43 -26.06,12.703 -43.4,24.14 -52.03,34.382 -8.67,10.309 -12.97,22.848 -12.97,37.649 0,19.262 6.48,34.851 19.53,46.719 13.13,11.961 30.23,17.972 51.41,17.972 17.38,0 31.91,-3.402 43.59,-10.152 11.76,-6.68 19.88,-16.328 24.38,-28.91 l -30,-15.469 c -4.69,7.379 -9.93,12.809 -15.63,16.25 -5.62,3.441 -12.11,5.16 -19.37,5.16 -10.32,0 -18.52,-2.738 -24.54,-8.129 -6.05,-5.312 -9.06,-12.461 -9.06,-21.402 0,-14.18 13.28,-27.43 39.85,-39.688 2.07,-0.941 3.67,-1.679 4.84,-2.191 23.32,-10.859 39.3,-21.41 47.97,-31.719 8.75,-10.23 13.12,-22.972 13.12,-38.281 0,-22.418 -7.03,-40.1602 -21.09,-53.2812 -14.06,-13.129 -33.09,-19.6875 -57.03,-19.6875 -20.12,0 -36.56,4.6093 -49.38,13.75 -12.81,9.2578 -21.21,22.5 -25.15,39.6875 z" /><path
         id="path68"
         style="fill:#000000;fill-opacity:1;fill-rule:nonzero;stroke:none"
         d="M 3860.43,18.2813 V 254.219 h 38.44 V 52.6602 h 85.62 V 18.2813 Z" /><path
         id="path70"
         style="fill:#000000;fill-opacity:1;fill-rule:nonzero;stroke:none"
         d="M 4015.78,18.2813 V 254.219 h 38.44 V 52.6602 h 85.62 V 18.2813 Z" /><path
         id="path72"
         style="fill:#000000;fill-opacity:1;fill-rule:nonzero;stroke:none"
         d="m 4360.47,196.879 c -10.86,9.141 -22.31,16.012 -34.38,20.621 -12.11,4.691 -24.8,7.031 -38.12,7.031 -25.86,0 -46.84,-8.281 -62.97,-24.84 -16.17,-16.57 -24.22,-37.972 -24.22,-64.222 0,-25.547 7.85,-46.5588 23.6,-63.1292 15.7,-16.4804 35.54,-24.6796 59.53,-24.6796 13.94,0 27.22,2.4218 39.84,7.3398 12.7,5 24.84,12.4219 36.41,22.3398 V 34.0586 c -10.32,-7.418 -21.57,-12.9297 -33.75,-16.5586 -12.11,-3.6289 -25.24,-5.4687 -39.38,-5.4687 -18.12,0 -34.84,2.9296 -50.15,8.75 -15.24,5.9375 -28.68,14.6875 -40.32,26.25 -11.48,11.25 -20.31,24.5273 -26.56,39.8476 -6.17,15.3121 -9.22,31.6011 -9.22,48.9021 0,17.27 3.05,33.52 9.22,48.75 6.25,15.199 15.2,28.52 26.88,40 11.75,11.559 25.19,20.309 40.31,26.25 15.08,6.02 31.48,9.059 49.22,9.059 13.82,0 27.03,-2.031 39.53,-6.09 12.58,-3.98 24.76,-10.078 36.56,-18.281 z" /></g></g></svg>